<svg version="1.1" xmlns="http://www.w3.org/2000/svg" xmlns:xlink="http://www.w3.org/1999/xlink" width="564" height="356"><defs/><g><text fill="#eeeeee" stroke="none" font-family="Arial" font-size="24px" font-style="normal" font-weight="normal" text-decoration="none" x="0" y="0">UNREGISTERED</text><text fill="#eeeeee" stroke="none" font-family="Arial" font-size="24px" font-style="normal" font-weight="normal" text-decoration="none" x="0" y="30">UNREGISTERED</text><text fill="#eeeeee" stroke="none" font-family="Arial" font-size="24px" font-style="normal" font-weight="normal" text-decoration="none" x="0" y="60">UNREGISTERED</text><text fill="#eeeeee" stroke="none" font-family="Arial" font-size="24px" font-style="normal" font-weight="normal" text-decoration="none" x="0" y="90">UNREGISTERED</text><text fill="#eeeeee" stroke="none" font-family="Arial" font-size="24px" font-style="normal" font-weight="normal" text-decoration="none" x="0" y="120">UNREGISTERED</text><text fill="#eeeeee" stroke="none" font-family="Arial" font-size="24px" font-style="normal" font-weight="normal" text-decoration="none" x="0" y="150">UNREGISTERED</text><text fill="#eeeeee" stroke="none" font-family="Arial" font-size="24px" font-style="normal" font-weight="normal" text-decoration="none" x="0" y="180">UNREGISTERED</text><text fill="#eeeeee" stroke="none" font-family="Arial" font-size="24px" font-style="normal" font-weight="normal" text-decoration="none" x="0" y="210">UNREGISTERED</text><text fill="#eeeeee" stroke="none" font-family="Arial" font-size="24px" font-style="normal" font-weight="normal" text-decoration="none" x="0" y="240">UNREGISTERED</text><text fill="#eeeeee" stroke="none" font-family="Arial" font-size="24px" font-style="normal" font-weight="normal" text-decoration="none" x="0" y="270">UNREGISTERED</text><text fill="#eeeeee" stroke="none" font-family="Arial" font-size="24px" font-style="normal" font-weight="normal" text-decoration="none" x="0" y="300">UNREGISTERED</text><text fill="#eeeeee" stroke="none" font-family="Arial" font-size="24px" font-style="normal" font-weight="normal" text-decoration="none" x="0" y="330">UNREGISTERED</text><text fill="#eeeeee" stroke="none" font-family="Arial" font-size="24px" font-style="normal" font-weight="normal" text-decoration="none" x="200" y="0">UNREGISTERED</text><text fill="#eeeeee" stroke="none" font-family="Arial" font-size="24px" font-style="normal" font-weight="normal" text-decoration="none" x="200" y="30">UNREGISTERED</text><text fill="#eeeeee" stroke="none" font-family="Arial" font-size="24px" font-style="normal" font-weight="normal" text-decoration="none" x="200" y="60">UNREGISTERED</text><text fill="#eeeeee" stroke="none" font-family="Arial" font-size="24px" font-style="normal" font-weight="normal" text-decoration="none" x="200" y="90">UNREGISTERED</text><text fill="#eeeeee" stroke="none" font-family="Arial" font-size="24px" font-style="normal" font-weight="normal" text-decoration="none" x="200" y="120">UNREGISTERED</text><text fill="#eeeeee" stroke="none" font-family="Arial" font-size="24px" font-style="normal" font-weight="normal" text-decoration="none" x="200" y="150">UNREGISTERED</text><text fill="#eeeeee" stroke="none" font-family="Arial" font-size="24px" font-style="normal" font-weight="normal" text-decoration="none" x="200" y="180">UNREGISTERED</text><text fill="#eeeeee" stroke="none" font-family="Arial" font-size="24px" font-style="normal" font-weight="normal" text-decoration="none" x="200" y="210">UNREGISTERED</text><text fill="#eeeeee" stroke="none" font-family="Arial" font-size="24px" font-style="normal" font-weight="normal" text-decoration="none" x="200" y="240">UNREGISTERED</text><text fill="#eeeeee" stroke="none" font-family="Arial" font-size="24px" font-style="normal" font-weight="normal" text-decoration="none" x="200" y="270">UNREGISTERED</text><text fill="#eeeeee" stroke="none" font-family="Arial" font-size="24px" font-style="normal" font-weight="normal" text-decoration="none" x="200" y="300">UNREGISTERED</text><text fill="#eeeeee" stroke="none" font-family="Arial" font-size="24px" font-style="normal" font-weight="normal" text-decoration="none" x="200" y="330">UNREGISTERED</text><text fill="#eeeeee" stroke="none" font-family="Arial" font-size="24px" font-style="normal" font-weight="normal" text-decoration="none" x="400" y="0">UNREGISTERED</text><text fill="#eeeeee" stroke="none" font-family="Arial" font-size="24px" font-style="normal" font-weight="normal" text-decoration="none" x="400" y="30">UNREGISTERED</text><text fill="#eeeeee" stroke="none" font-family="Arial" font-size="24px" font-style="normal" font-weight="normal" text-decoration="none" x="400" y="60">UNREGISTERED</text><text fill="#eeeeee" stroke="none" font-family="Arial" font-size="24px" font-style="normal" font-weight="normal" text-decoration="none" x="400" y="90">UNREGISTERED</text><text fill="#eeeeee" stroke="none" font-family="Arial" font-size="24px" font-style="normal" font-weight="normal" text-decoration="none" x="400" y="120">UNREGISTERED</text><text fill="#eeeeee" stroke="none" font-family="Arial" font-size="24px" font-style="normal" font-weight="normal" text-decoration="none" x="400" y="150">UNREGISTERED</text><text fill="#eeeeee" stroke="none" font-family="Arial" font-size="24px" font-style="normal" font-weight="normal" text-decoration="none" x="400" y="180">UNREGISTERED</text><text fill="#eeeeee" stroke="none" font-family="Arial" font-size="24px" font-style="normal" font-weight="normal" text-decoration="none" x="400" y="210">UNREGISTERED</text><text fill="#eeeeee" stroke="none" font-family="Arial" font-size="24px" font-style="normal" font-weight="normal" text-decoration="none" x="400" y="240">UNREGISTERED</text><text fill="#eeeeee" stroke="none" font-family="Arial" font-size="24px" font-style="normal" font-weight="normal" text-decoration="none" x="400" y="270">UNREGISTERED</text><text fill="#eeeeee" stroke="none" font-family="Arial" font-size="24px" font-style="normal" font-weight="normal" text-decoration="none" x="400" y="300">UNREGISTERED</text><text fill="#eeeeee" stroke="none" font-family="Arial" font-size="24px" font-style="normal" font-weight="normal" text-decoration="none" x="400" y="330">UNREGISTERED</text><g transform="translate(-62,-78) scale(1,1)"><rect fill="#C0C0C0" stroke="none" x="223" y="95" width="400" height="336" opacity="0.2"/></g><g transform="translate(-62,-78) scale(1,1)"><rect fill="#ffffff" stroke="none" x="216" y="88" width="400" height="336"/></g><g transform="translate(-62,-78) scale(1,1)"><path fill="none" stroke="#000000" d="M 216 88 L 616 88 L 616 424 L 216 424 L 216 88 Z Z" stroke-miterlimit="10"/></g><g transform="translate(-62,-78) scale(1,1)"><g><path fill="none" stroke="none"/><text fill="#000000" stroke="none" font-family="Arial" font-size="13px" font-style="normal" font-weight="bold" text-decoration="none" x="394.3291015625" y="107.5">System</text></g></g><g transform="translate(-62,-78) scale(1,1)"><path fill="#ffffff" stroke="none" d="M 88.40935031960227 105.68 C 88.40935031960227 100.886167936 92.29519264454773 97 97.088623046875 97 C 101.88205344920227 97 105.76789577414773 100.886167936 105.76789577414773 105.68 C 105.76789577414773 110.473832064 101.88205344920227 114.36 97.088623046875 114.36 C 92.29519264454773 114.36 88.40935031960227 110.473832064 88.40935031960227 105.68 Z"/></g><g transform="translate(-62,-78) scale(1,1)"><path fill="none" stroke="#000000" d="M 88.40935031960227 105.68 C 88.40935031960227 100.886167936 92.29519264454773 97 97.088623046875 97 C 101.88205344920227 97 105.76789577414773 100.886167936 105.76789577414773 105.68 C 105.76789577414773 110.473832064 101.88205344920227 114.36 97.088623046875 114.36 C 92.29519264454773 114.36 88.40935031960227 110.473832064 88.40935031960227 105.68 Z" stroke-miterlimit="10"/></g><g transform="translate(-62,-78) scale(1,1)"><path fill="none" stroke="#000000" d="M 97.088623046875 114.36 L 97.088623046875 131.64" stroke-miterlimit="10"/></g><g transform="translate(-62,-78) scale(1,1)"><path fill="none" stroke="#000000" d="M 87.89880486505682 120.84 L 106.27844122869318 120.84" stroke-miterlimit="10"/></g><g transform="translate(-62,-78) scale(1,1)"><path fill="none" stroke="#000000" d="M 97.088623046875 131.64 L 84.32498668323863 149" stroke-miterlimit="10"/></g><g transform="translate(-62,-78) scale(1,1)"><path fill="none" stroke="#000000" d="M 97.088623046875 131.64 L 109.85225941051137 149" stroke-miterlimit="10"/></g><g transform="translate(-62,-78) scale(1,1)"><g><path fill="none" stroke="none"/><text fill="#000000" stroke="none" font-family="Arial" font-size="13px" font-style="normal" font-weight="bold" text-decoration="none" x="78.66455078125" y="169.5">Admin</text></g></g><g transform="translate(-62,-78) scale(1,1)"><path fill="#ffffff" stroke="none" d="M 88.40935031960227 257.68 C 88.40935031960227 252.886167936 92.29519264454773 249 97.088623046875 249 C 101.88205344920227 249 105.76789577414773 252.886167936 105.76789577414773 257.68 C 105.76789577414773 262.473832064 101.88205344920227 266.36 97.088623046875 266.36 C 92.29519264454773 266.36 88.40935031960227 262.473832064 88.40935031960227 257.68 Z"/></g><g transform="translate(-62,-78) scale(1,1)"><path fill="none" stroke="#000000" d="M 88.40935031960227 257.68 C 88.40935031960227 252.886167936 92.29519264454773 249 97.088623046875 249 C 101.88205344920227 249 105.76789577414773 252.886167936 105.76789577414773 257.68 C 105.76789577414773 262.473832064 101.88205344920227 266.36 97.088623046875 266.36 C 92.29519264454773 266.36 88.40935031960227 262.473832064 88.40935031960227 257.68 Z" stroke-miterlimit="10"/></g><g transform="translate(-62,-78) scale(1,1)"><path fill="none" stroke="#000000" d="M 97.088623046875 266.36 L 97.088623046875 283.64" stroke-miterlimit="10"/></g><g transform="translate(-62,-78) scale(1,1)"><path fill="none" stroke="#000000" d="M 87.89880486505682 272.84 L 106.27844122869318 272.84" stroke-miterlimit="10"/></g><g transform="translate(-62,-78) scale(1,1)"><path fill="none" stroke="#000000" d="M 97.088623046875 283.64 L 84.32498668323863 301" stroke-miterlimit="10"/></g><g transform="translate(-62,-78) scale(1,1)"><path fill="none" stroke="#000000" d="M 97.088623046875 283.64 L 109.85225941051137 301" stroke-miterlimit="10"/></g><g transform="translate(-62,-78) scale(1,1)"><g><path fill="none" stroke="none"/><text fill="#000000" stroke="none" font-family="Arial" font-size="13px" font-style="normal" font-weight="bold" text-decoration="none" x="83.364990234375" y="321.5">User</text></g></g><g transform="translate(-62,-78) scale(1,1)"><path fill="#C0C0C0" stroke="none" d="M 319 144 C 319 134.6111584 353.0263552 127 395 127 C 436.9736448 127 471 134.6111584 471 144 C 471 153.3888416 436.9736448 161 395 161 C 353.0263552 161 319 153.3888416 319 144 Z" opacity="0.2"/></g><g transform="translate(-62,-78) scale(1,1)"><path fill="#a3e0ff" stroke="none" d="M 312 137 C 312 127.6111584 346.0263552 120 388 120 C 429.9736448 120 464 127.6111584 464 137 C 464 146.3888416 429.9736448 154 388 154 C 346.0263552 154 312 146.3888416 312 137 Z"/></g><g transform="translate(-62,-78) scale(1,1)"><path fill="none" stroke="#000000" d="M 312 137 C 312 127.6111584 346.0263552 120 388 120 C 429.9736448 120 464 127.6111584 464 137 C 464 146.3888416 429.9736448 154 388 154 C 346.0263552 154 312 146.3888416 312 137 Z" stroke-miterlimit="10"/></g><g transform="translate(-62,-78) scale(1,1)"><g><path fill="none" stroke="none"/><text fill="#000000" stroke="none" font-family="Arial" font-size="13px" font-style="normal" font-weight="bold" text-decoration="none" x="342.109619140625" y="144">Create question</text></g></g><g transform="translate(-62,-78) scale(1,1)"><path fill="#C0C0C0" stroke="none" d="M 439 371.5 C 439 355.7598832 474.36950079999997 343 518 343 C 561.6304992 343 597 355.7598832 597 371.5 C 597 387.2401168 561.6304992 400 518 400 C 474.36950079999997 400 439 387.2401168 439 371.5 Z" opacity="0.2"/></g><g transform="translate(-62,-78) scale(1,1)"><path fill="#a3e0ff" stroke="none" d="M 432 364.5 C 432 348.7598832 467.36950079999997 336 511 336 C 554.6304992 336 590 348.7598832 590 364.5 C 590 380.2401168 554.6304992 393 511 393 C 467.36950079999997 393 432 380.2401168 432 364.5 Z"/></g><g transform="translate(-62,-78) scale(1,1)"><path fill="none" stroke="#000000" d="M 432 364.5 C 432 348.7598832 467.36950079999997 336 511 336 C 554.6304992 336 590 348.7598832 590 364.5 C 590 380.2401168 554.6304992 393 511 393 C 467.36950079999997 393 432 380.2401168 432 364.5 Z" stroke-miterlimit="10"/></g><g transform="translate(-62,-78) scale(1,1)"><g><path fill="none" stroke="none"/><text fill="#000000" stroke="none" font-family="Arial" font-size="13px" font-style="normal" font-weight="bold" text-decoration="none" x="463.668701171875" y="371.5">Query questions</text></g></g><g transform="translate(-62,-78) scale(1,1)"><path fill="none" stroke="#000000" d="M 97 176 L 97 247" stroke-miterlimit="10"/></g><g transform="translate(-62,-78) scale(1,1)"><path fill="#FFFFFF" stroke="none" d="M 88.58096448796803 226.6746502847517 L 97 247 L 105.41903551203198 226.6746502847517"/></g><g transform="translate(-62,-78) scale(1,1)"><path fill="none" stroke="#000000" d="M 88.58096448796803 226.6746502847517 L 97 247 L 105.41903551203198 226.6746502847517 L 88.58096448796803 226.6746502847517" stroke-miterlimit="10"/></g><g transform="translate(-62,-78) scale(1,1)"><path fill="none" stroke="#000000" d="M 123 135 L 311 136" stroke-miterlimit="10"/></g><g transform="translate(-62,-78) scale(1,1)"><path fill="none" stroke="#000000" d="M 123 292 L 431 349" stroke-miterlimit="10"/></g><g transform="translate(-62,-78) scale(1,1)"><path fill="#C0C0C0" stroke="none" d="M 263 386.5 C 263 371.312168 296.8024976 359 338.5 359 C 380.1975024 359 414 371.312168 414 386.5 C 414 401.687832 380.1975024 414 338.5 414 C 296.8024976 414 263 401.687832 263 386.5 Z" opacity="0.2"/></g><g transform="translate(-62,-78) scale(1,1)"><path fill="#a3e0ff" stroke="none" d="M 256 379.5 C 256 364.312168 289.8024976 352 331.5 352 C 373.1975024 352 407 364.312168 407 379.5 C 407 394.687832 373.1975024 407 331.5 407 C 289.8024976 407 256 394.687832 256 379.5 Z"/></g><g transform="translate(-62,-78) scale(1,1)"><path fill="none" stroke="#000000" d="M 256 379.5 C 256 364.312168 289.8024976 352 331.5 352 C 373.1975024 352 407 364.312168 407 379.5 C 407 394.687832 373.1975024 407 331.5 407 C 289.8024976 407 256 394.687832 256 379.5 Z" stroke-miterlimit="10"/></g><g transform="translate(-62,-78) scale(1,1)"><g><path fill="none" stroke="none"/><text fill="#000000" stroke="none" font-family="Arial" font-size="13px" font-style="normal" font-weight="bold" text-decoration="none" x="307.29638671875" y="386.5">Register</text></g></g><g transform="translate(-62,-78) scale(1,1)"><path fill="none" stroke="#000000" d="M 123 297 L 260 351" stroke-miterlimit="10"/></g><g transform="translate(-62,-78) scale(1,1)"><path fill="#C0C0C0" stroke="none" d="M 447 182.5 C 447 169.5213072 482.5933584 159 526.5 159 C 570.4066416000001 159 606 169.5213072 606 182.5 C 606 195.4786928 570.4066416000001 206 526.5 206 C 482.5933584 206 447 195.4786928 447 182.5 Z" opacity="0.2"/></g><g transform="translate(-62,-78) scale(1,1)"><path fill="#a3e0ff" stroke="none" d="M 440 175.5 C 440 162.5213072 475.5933584 152 519.5 152 C 563.4066416000001 152 599 162.5213072 599 175.5 C 599 188.4786928 563.4066416000001 199 519.5 199 C 475.5933584 199 440 188.4786928 440 175.5 Z"/></g><g transform="translate(-62,-78) scale(1,1)"><path fill="none" stroke="#000000" d="M 440 175.5 C 440 162.5213072 475.5933584 152 519.5 152 C 563.4066416000001 152 599 162.5213072 599 175.5 C 599 188.4786928 563.4066416000001 199 519.5 199 C 475.5933584 199 440 188.4786928 440 175.5 Z" stroke-miterlimit="10"/></g><g transform="translate(-62,-78) scale(1,1)"><g><path fill="none" stroke="none"/><text fill="#000000" stroke="none" font-family="Arial" font-size="13px" font-style="normal" font-weight="bold" text-decoration="none" x="482.28369140625" y="182.5">Create event</text></g></g><g transform="translate(-62,-78) scale(1,1)"><path fill="none" stroke="#000000" d="M 123 137 L 439 167" stroke-miterlimit="10"/></g><g transform="translate(-62,-78) scale(1,1)"><path fill="#C0C0C0" stroke="none" d="M 343 314.5 C 343 299.312168 378.5933584 287 422.5 287 C 466.4066416 287 502 299.312168 502 314.5 C 502 329.687832 466.4066416 342 422.5 342 C 378.5933584 342 343 329.687832 343 314.5 Z" opacity="0.2"/></g><g transform="translate(-62,-78) scale(1,1)"><path fill="#a3e0ff" stroke="none" d="M 336 307.5 C 336 292.312168 371.5933584 280 415.5 280 C 459.4066416 280 495 292.312168 495 307.5 C 495 322.687832 459.4066416 335 415.5 335 C 371.5933584 335 336 322.687832 336 307.5 Z"/></g><g transform="translate(-62,-78) scale(1,1)"><path fill="none" stroke="#000000" d="M 336 307.5 C 336 292.312168 371.5933584 280 415.5 280 C 459.4066416 280 495 292.312168 495 307.5 C 495 322.687832 459.4066416 335 415.5 335 C 371.5933584 335 336 322.687832 336 307.5 Z" stroke-miterlimit="10"/></g><g transform="translate(-62,-78) scale(1,1)"><g><path fill="none" stroke="none"/><text fill="#000000" stroke="none" font-family="Arial" font-size="13px" font-style="normal" font-weight="bold" text-decoration="none" x="397.7900390625" y="314.5">Log in</text></g></g><g transform="translate(-62,-78) scale(1,1)"><path fill="none" stroke="#000000" d="M 123 289 L 335 302" stroke-miterlimit="10"/></g><g transform="translate(-62,-78) scale(1,1)"><path fill="#C0C0C0" stroke="none" d="M 271 210.5 C 271 195.31216799999999 304.8024976 183 346.5 183 C 388.1975024 183 422 195.31216799999999 422 210.5 C 422 225.68783200000001 388.1975024 238 346.5 238 C 304.8024976 238 271 225.68783200000001 271 210.5 Z" opacity="0.2"/></g><g transform="translate(-62,-78) scale(1,1)"><path fill="#a3e0ff" stroke="none" d="M 264 203.5 C 264 188.31216799999999 297.8024976 176 339.5 176 C 381.1975024 176 415 188.31216799999999 415 203.5 C 415 218.68783200000001 381.1975024 231 339.5 231 C 297.8024976 231 264 218.68783200000001 264 203.5 Z"/></g><g transform="translate(-62,-78) scale(1,1)"><path fill="none" stroke="#000000" d="M 264 203.5 C 264 188.31216799999999 297.8024976 176 339.5 176 C 381.1975024 176 415 188.31216799999999 415 203.5 C 415 218.68783200000001 381.1975024 231 339.5 231 C 297.8024976 231 264 218.68783200000001 264 203.5 Z" stroke-miterlimit="10"/></g><g transform="translate(-62,-78) scale(1,1)"><g><path fill="none" stroke="none"/><text fill="#000000" stroke="none" font-family="Arial" font-size="13px" font-style="normal" font-weight="bold" text-decoration="none" x="315.65185546875" y="210.5">Set fees</text></g></g><g transform="translate(-62,-78) scale(1,1)"><path fill="none" stroke="#000000" d="M 123 142 L 263 182" stroke-miterlimit="10"/></g></g></svg>